<svg version="1.2" xmlns="http://www.w3.org/2000/svg" viewBox="0 0 480 480" width="480" height="480">
	<title>9104204_incognito_privacy_secure_anonymous_hide_icon-svg</title>
	<style>
		@media (prefers-color-scheme: light) {
			.s0 { fill: #000000 } 	
		}
		@media (prefers-color-scheme: dark) {
			.s0 { fill: #ffffff } 	
		}
	</style>
	<path id="Path 0" fill-rule="evenodd" class="s0" d="m245.8 27.1c10.5-0.1 21.8 0.5 28.9 1.5 6.5 0.8 15.5 2.4 20 3.5 4.6 1 14.9 4.1 23 6.8 8.2 2.7 19.3 7.1 24.8 9.9 5.5 2.7 14.3 7.9 19.5 11.4 5.2 3.6 12.2 8.3 15.5 10.6 3.3 2.3 12.6 10.8 20.7 18.9 12.4 12.6 16.3 17.2 25.3 30.8 5.9 8.8 12.9 20.5 15.6 26 2.6 5.5 6.4 14.9 8.4 21 2 6.1 4.7 15.1 6 20 1.3 4.9 3.2 13.3 4 18.5 0.9 5.2 1.9 18.1 2.2 28.5 0.4 12.3 0.2 22.5-0.6 29-0.7 5.5-2.1 14.3-3.1 19.5-1.1 5.2-4.2 16.5-7 25-2.8 8.5-7.5 20.4-10.5 26.5-2.9 6.1-6.9 13.3-8.7 16-1.9 2.7-6.6 9.7-10.6 15.5-5 7.4-11.5 14.8-21.9 25.1-8.7 8.6-18.3 17.1-23.3 20.5-4.7 3.2-11.4 7.8-15 10.2-3.6 2.4-11.5 6.8-17.5 9.8-6.1 2.9-17.3 7.4-25 9.9-7.7 2.5-18.1 5.5-23 6.6-5 1.1-13.7 2.7-19.5 3.5-5.8 0.7-17.7 1.4-26.5 1.4-8.8 0-20.1-0.5-25-1-5-0.6-13.5-2-19-3.2-5.5-1.1-17.4-4.5-26.5-7.5-9.1-3-19-6.8-27.5-11.1l-14 3.8c-7.7 2.1-17.6 4.7-22 5.8-4.4 1.1-16.7 4.5-27.3 7.6-14.6 4.3-20.8 5.6-25.7 5.6-3.6 0-8-0.7-9.8-1.5-1.7-0.8-5.2-3.1-7.6-5.2-2.4-2.1-5.4-5.9-6.7-8.6-1.8-3.5-2.4-6.4-2.4-11.2 0-4.9 1.3-11.1 5.6-25.8 3.1-10.5 6.5-22.8 7.6-27.2 1.1-4.4 3.8-14.3 9.6-36l-2.8-5.5c-1.5-3-4.6-10.9-6.9-17.5-2.3-6.6-5.3-16.1-6.6-21-1.4-4.9-3.4-15.1-4.5-22.5-1.4-9.8-2-18.7-2-32.3 0-11.7 0.6-22.5 1.5-29 0.9-5.6 2.4-13.8 3.5-18.2 1-4.4 3.9-14.1 6.4-21.5 2.4-7.4 5.5-15.8 6.7-18.5 1.2-2.8 4.3-8.8 6.9-13.5 2.6-4.7 8.6-14.1 13.4-21 6.4-9.2 12.7-16.5 23.9-27.8 8.3-8.4 16.8-16.3 18.7-17.5 1.9-1.2 7.8-5.2 13-9 5.2-3.7 14.7-9.4 21-12.7 6.6-3.4 18.5-8.2 28-11.3 9.1-3 19.9-6.2 24-7.1 4.1-0.9 12-2.3 17.5-3 5.5-0.8 17.8-1.4 27.2-1.5zm-45.2 79.5c-1.7 1.2-4.5 3.8-6.3 5.8-1.7 2-4.3 5.7-5.6 8.3-1.3 2.7-7.1 23.4-13 46-5.8 22.7-10.6 41.5-10.6 41.8 0 0.3-7.4 0.5-16.5 0.5-13.6 0-17.1 0.3-20.2 1.7-2 1-4.5 3.1-5.5 4.8-1.5 2.3-1.8 4.4-1.5 9 0.4 5.4 0.8 6.3 4.1 9.2l3.6 3.3h231c6.8-6.1 7.3-7.2 7.7-12 0.3-4-0.1-6.4-1.4-8.9-1-1.9-3.4-4.3-5.3-5.3-3-1.5-5.9-1.8-20-1.8h-16.5c-16.7-63.9-22.6-84.8-23.8-87.5-1.3-2.8-4.3-7.2-6.7-9.8-2.7-3-7.1-6.1-11-8-4.6-2.3-8.4-3.3-13-3.6-6.2-0.4-6.8-0.2-12.5 3.4-3.3 2.1-7.6 4-9.5 4.3-2.3 0.3-5.2-0.3-8.5-1.8-2.8-1.3-6.9-3.1-9.3-4.1-2.5-1.2-6.5-1.9-10-1.9-3.6 0-7.7 0.9-11.2 2.3-3 1.2-6.9 3.2-8.5 4.3zm-50.3 149.5c-6 2.9-9.8 5.6-14.3 10.1-3.4 3.5-7.6 9-9.4 12.3-1.8 3.3-4 8.5-4.9 11.5-1 3.5-1.6 9.2-1.6 15.5 0 7.6 0.6 11.5 2.3 16.5 1.2 3.6 3.8 9.2 5.7 12.4 1.9 3.2 6 8.1 9 11 3.1 2.8 8.3 6.5 11.5 8.3 3.3 1.7 8.7 3.8 12 4.7 3.3 0.9 9.8 1.6 14.5 1.6 5.1 0 11.1-0.7 15-1.8 3.6-0.9 9.1-3.3 12.3-5.2 3.2-1.9 8.3-6 11.4-9 3-3 6.7-7.5 8.2-10 1.4-2.4 3.6-6.7 4.8-9.5l2.1-5 29.7-0.6c3.4 9 5.8 13.7 7.5 16.3 1.6 2.7 4.9 6.7 7.2 8.9 2.4 2.3 6.5 5.7 9.3 7.5 2.7 1.9 7.7 4.3 11 5.6 4.1 1.5 9.1 2.3 16 2.6 7.1 0.3 12-0.1 17-1.3 3.9-0.9 9.5-3 12.5-4.8 3-1.7 7.5-4.8 10-6.7 2.5-2 6.6-6.7 9.1-10.5 2.6-3.9 5.6-9.7 6.8-13 1.2-3.3 2.5-9.4 2.8-13.5 0.3-4.2 0-10.6-0.6-14.5-0.7-3.9-2.7-10.1-4.6-14-1.9-3.9-5.9-9.8-9.2-13.4-3.3-3.6-8.6-8-12.3-10.1-3.6-2.1-9-4.6-12-5.6-3.9-1.4-8.5-1.9-16-1.9-8.3 0-11.9 0.5-17 2.3-3.6 1.2-8.6 3.4-11.2 5-2.6 1.5-7.1 4.9-9.9 7.7-2.9 2.7-6.6 7-8.3 9.5-1.6 2.5-4 7-5.3 10l-2.2 5.5-30.6 0.6c-2.3-7.4-4.6-12.1-6.6-15.1-1.9-3-5.8-7.7-8.5-10.3-2.7-2.7-6.9-6.1-9.4-7.5-2.5-1.5-7.4-3.7-11-5-4.5-1.6-9.3-2.5-15.5-2.7-4.9-0.2-11.3 0-14 0.6-2.8 0.6-8.7 2.8-13.3 5zm69.8-127.7c0.8 0.2 4.4 1.7 8 3.1 3.7 1.6 9.3 2.9 13 3.2 4.3 0.4 8.6 0 12.7-1.1 3.5-0.9 8.1-2.5 10.3-3.6 3.6-1.8 4.2-1.9 6.5-0.5 1.4 0.8 3.1 2.7 3.9 4.3 0.7 1.5 2.6 7 4.1 12.2 1.5 5.2 3.6 12.3 6.5 22h-81l3.5-13.8c1.9-7.5 3.9-15.3 4.4-17.2 0.6-1.9 2.2-4.8 3.8-6.3 1.5-1.6 3.4-2.6 4.3-2.3zm-22.9 67.6h93.4l1.8 6.2c0.9 3.5 1.6 6.4 1.5 6.5-0.2 0.1-10.2 0.2-22.3 0.3-12.1 0.1-34.3 0.1-49.3 0.1-23.5-0.1-27.2-0.3-27.2-1.6 0-0.8 0.5-3.7 1.1-6.5zm-16.3 83.2c2.5 0.5 6.4 1.9 8.6 3.2 2.2 1.3 5.5 4.1 7.3 6.2 1.8 2.1 4 6.4 4.9 9.4 0.9 3.3 1.4 7.3 1.1 10-0.3 2.5-1.4 6.3-2.5 8.5-1.1 2.2-3.1 5.4-4.5 7-1.4 1.6-4.7 4.1-7.4 5.5-3 1.5-7.2 2.6-10.9 2.8-4.8 0.4-7 0-11.5-2-3-1.4-6.8-3.8-8.3-5.4-1.6-1.6-3.9-4.7-5.2-6.9-1.3-2.2-2.6-6-3-8.5-0.5-3-0.2-6.4 0.9-10 0.8-3 2.9-7.4 4.5-9.7 1.7-2.3 5-5.3 7.3-6.7 2.4-1.5 6.5-3 9.2-3.4 2.6-0.4 6.9-0.4 9.5 0zm132.1-0.2c5.2 0 7.7 0.6 12 2.7 2.9 1.6 6.5 4.2 7.8 5.8 1.4 1.6 3.4 4.8 4.5 7 1.6 2.9 2.1 5.9 2.1 11 0 5.1-0.5 8.1-2.1 11-1.1 2.2-3.3 5.4-4.9 7.2-1.6 1.7-5.6 4.3-8.9 5.8-5 2.3-7 2.7-12 2.3-3.6-0.2-7.9-1.3-10.8-2.8-2.7-1.4-6-3.9-7.4-5.5-1.4-1.6-3.4-4.8-4.5-7-1.1-2.2-2.2-6-2.5-8.5-0.4-3 0.1-6.5 1.3-10.4 1.1-3.3 3.3-7.5 5-9.5 1.7-2 5.5-4.8 8.5-6.4 4.3-2.1 6.8-2.7 11.9-2.7z"/>
</svg>